# xmcd CD database file
#
# Track frame offsets:
#	150
#	36277
#	68752
#	99562
#	111385
#	138962
#	182776
#	214592
#	248149
#	271661
#	303643
#	328730
#
# Disc length: 4553 seconds
#
# Revision: 0
# Processed by: cddbd v1.5.2PL0 Copyright (c) Steve Scherf et al.
# Submitted via: CDex 1.51
#
DISCID=ae11c70c
DTITLE=Primus Sitter - Theatercafe Direkt - Werkstatt 2003 - 2010
DYEAR=2010
DGENRE=Jazz
TTITLE0="Nösit": Daniel Nösig (trump), Raphael Preuschl (bass), Christian Salfellner (dr), Primus Sitter (git) - T.C.
TTITLE1=Wolfgang Puschnig (alt sax), Primus Sitter (git) - We See
TTITLE2=Reinhold Schmölzer (dr), Milan Nikolic (bass), Primus Sitter (git) - Smoke Gets In Your Eyes
TTITLE3=Elisabeth Monder (voc), Stefan Gfrerrer (bass), Primus Sitter (git) - Something
TTITLE4="Trio Süd": Michael Erian (ten sax), Heinrich Werkl (bass), Primus Sitter (git) - Green Eyes
TTITLE5=Ali Gaggl (voc), Wolfgang Puschnig (alt sax), Primus Sitter (git) - God Bless The Child
TTITLE6=Nevio Zaninotto (ten sax), Danilo Gallo (bass), Umberto Trombetta Gandhi (dr), Primus Sitter (git) - I Got Rock
TTITLE7=Klemens Marktl (dr), Primus Sitter (git) - Joe
TTITLE8=Rob Bargad (voc, e-piano), Primus Sitter (git) - Teardrop
TTITLE9=Daniel Nösig (trump), Primus Sitter (git) - I Hear A Rhapsody
TTITLE10=Christian Wendt (bass), Primus Sitter (git) - Air, Love and Vitamines
TTITLE11=The Talltones, Richard Klammer (voc),Stefan Gfrerer (bass), Primus Sitter (guit) - Valosn
EXTD=YEAR: 2010
EXTT0=
EXTT1=
EXTT2=
EXTT3=
EXTT4=
EXTT5=
EXTT6=
EXTT7=
EXTT8=
EXTT9=
EXTT10=
EXTT11=
PLAYORDER=
